<?xml version="1.0" encoding="UTF-8" standalone="no"?>
<!-- Created with Inkscape (http://www.inkscape.org/) -->

<svg
   width="137.92853mm"
   height="137.92857mm"
   viewBox="0 0 137.92853 137.92858"
   version="1.1"
   id="svg1"
   xml:space="preserve"
   inkscape:version="1.3.2 (091e20ef0f, 2023-11-25, custom)"
   sodipodi:docname="logo_discord.svg"
   inkscape:export-filename="../Website/public/logo.svg"
   inkscape:export-xdpi="96"
   inkscape:export-ydpi="96"
   xmlns:inkscape="http://www.inkscape.org/namespaces/inkscape"
   xmlns:sodipodi="http://sodipodi.sourceforge.net/DTD/sodipodi-0.dtd"
   xmlns="http://www.w3.org/2000/svg"
   xmlns:svg="http://www.w3.org/2000/svg"><sodipodi:namedview
     id="namedview1"
     pagecolor="#ffffff"
     bordercolor="#000000"
     borderopacity="0.25"
     inkscape:showpageshadow="2"
     inkscape:pageopacity="0.0"
     inkscape:pagecheckerboard="0"
     inkscape:deskcolor="#d1d1d1"
     inkscape:document-units="mm"
     inkscape:zoom="1.1208163"
     inkscape:cx="93.681717"
     inkscape:cy="257.84777"
     inkscape:window-width="1900"
     inkscape:window-height="984"
     inkscape:window-x="10"
     inkscape:window-y="48"
     inkscape:window-maximized="1"
     inkscape:current-layer="layer1" /><defs
     id="defs1" /><g
     inkscape:label="Layer 1"
     inkscape:groupmode="layer"
     id="layer1"
     transform="translate(-517.21156,-381.65478)"><rect
       style="opacity:1;fill:#458588;fill-opacity:1;stroke:none;stroke-width:0.799999"
       id="rect4"
       width="137.92854"
       height="137.92854"
       x="517.21155"
       y="381.65479"
       inkscape:export-filename="../Website_NEW/public/img/leo-favicon.svg"
       inkscape:export-xdpi="96"
       inkscape:export-ydpi="96" /><g
       id="g5"
       transform="translate(199.50951,336.20901)"
       style="fill:#fbf1c7;stroke:none"><path
         id="path4"
         style="fill:#fbf1c7;fill-opacity:1;stroke:none;stroke-width:0.465;stroke-dasharray:none"
         d="m 343.98365,77.027597 a 4.6374338,4.6374338 0 0 0 -4.63745,4.637443 v 10.502715 4.735113 15.139662 4.73511 15.14017 4.73511 10.5022 a 4.6374338,4.6374338 0 0 0 4.63745,4.63744 h 10.5022 4.73511 15.14016 4.73511 10.50222 a 4.6374338,4.6374338 0 0 0 4.63744,-4.63744 v -10.5022 -0.0977 a 4.6374338,4.6374338 0 0 1 4.63744,-4.63744 h 0.0977 15.14016 4.73512 10.5022 a 4.6374338,4.6374338 0 0 0 4.63744,-4.63745 V 116.77764 112.04253 96.902868 92.167755 81.66504 a 4.6374338,4.6374338 0 0 0 -4.63744,-4.637443 h -5.86476 a 4.6374338,4.6374338 0 0 0 -4.63744,4.637443 v 10.502715 4.735113 15.139662 2.33784 a 2.3969782,2.3969782 0 0 1 -2.39676,2.39727 2.3677378,2.3677378 0 0 1 -2.33836,-2.39727 v -2.33784 -10.50221 a 4.6374338,4.6374338 0 0 0 -4.63744,-4.637452 h -5.86527 a 4.6374338,4.6374338 0 0 0 -4.63745,4.637452 v 10.50221 2.40244 a 2.3323465,2.3323465 0 0 1 -2.33215,2.33267 h -0.0703 a 2.3323465,2.3323465 0 0 1 -2.33268,-2.33267 v -2.40244 -10.50221 a 4.6374338,4.6374338 0 0 0 -4.63744,-4.637452 h -10.50223 -4.73511 -10.50272 a 4.6374338,4.6374338 0 0 0 -4.63744,4.637452 v 10.50221 4.73511 10.50272 a 4.6374338,4.6374338 0 0 0 4.63744,4.63745 h 10.50272 2.31459 a 2.4205173,2.4205173 0 0 1 2.42052,2.42052 2.3681473,2.3681473 0 0 1 -2.42052,2.31459 h -2.31459 -15.14016 -0.0977 a 4.6374338,4.6374338 0 0 1 -4.63744,-4.63745 v -0.0977 -15.14017 -4.73511 -15.139662 -0.0977 a 4.6374338,4.6374338 0 0 1 4.63744,-4.637446 h 0.0977 15.14016 4.73511 15.13966 4.73511 10.50272 a 4.6374338,4.6374338 0 0 0 4.63744,-4.637443 v -5.865236 a 4.6374338,4.6374338 0 0 0 -4.63744,-4.637443 h -10.50272 -4.73511 -15.13966 -4.73511 -15.14016 -4.73511 z m 33.52715,34.196893 a 3.2798882,3.2798882 0 0 1 1.48776,0.81804 3.2798882,3.2798882 0 0 1 0.0977,4.63744 3.2798882,3.2798882 0 0 1 -4.63745,0.0977 3.2798882,3.2798882 0 0 1 -0.0977,-4.63744 3.2798882,3.2798882 0 0 1 3.14968,-0.91571 z m 25.34627,25.42791 c -2.15262,0 -3.88555,1.73293 -3.88555,3.88555 v 7.36906 c 0,2.15263 1.73293,3.88555 3.88555,3.88555 h 7.36854 c 2.15263,0 3.88555,-1.73292 3.88555,-3.88555 v -7.36906 c 0,-2.15262 -1.73292,-3.88555 -3.88555,-3.88555 z m 19.87476,0 c -2.15263,0 -3.88555,1.73293 -3.88555,3.88555 v 7.36906 c 0,2.15263 1.73292,3.88555 3.88555,3.88555 h 7.36906 c 2.15262,0 3.88555,-1.73292 3.88555,-3.88555 v -7.36906 c 0,-2.15262 -1.73293,-3.88555 -3.88555,-3.88555 z" /></g></g></svg>
